<?xml version="1.0" encoding="UTF-8" standalone="no"?>
<svg
   viewBox="0 0 1440 256"
   version="1.1"
   id="svg1"
   sodipodi:docname="wave.svg"
   width="1440"
   height="256"
   inkscape:version="1.3.2 (091e20e, 2023-11-25)"
   xmlns:inkscape="http://www.inkscape.org/namespaces/inkscape"
   xmlns:sodipodi="http://sodipodi.sourceforge.net/DTD/sodipodi-0.dtd"
   xmlns="http://www.w3.org/2000/svg"
   xmlns:svg="http://www.w3.org/2000/svg">
  <defs
     id="defs1" />
  <sodipodi:namedview
     id="namedview1"
     pagecolor="#505050"
     bordercolor="#eeeeee"
     borderopacity="1"
     inkscape:showpageshadow="0"
     inkscape:pageopacity="0"
     inkscape:pagecheckerboard="0"
     inkscape:deskcolor="#d1d1d1"
     inkscape:zoom="0.87013889"
     inkscape:cx="720"
     inkscape:cy="95.387071"
     inkscape:window-width="1920"
     inkscape:window-height="1016"
     inkscape:window-x="0"
     inkscape:window-y="0"
     inkscape:window-maximized="1"
     inkscape:current-layer="svg1" />
  <path
     fill="#9e1111"
     fill-opacity="1"
     d="M 0,0 48,32 C 96,64 192,128 288,165.3 384,203 480,213 576,186.7 672,160 768,96 864,90.7 960,85 1056,139 1152,149.3 1248,160 1344,128 1392,112 l 48,-16 v 160 h -48 c -48,0 -144,0 -240,0 -96,0 -192,0 -288,0 -96,0 -192,0 -288,0 -96,0 -192,0 -288,0 -96,0 -192,0 -240,0 H 0 Z"
     id="path1" />
</svg>
