<?xml version="1.0" encoding="UTF-8" standalone="no"?>
<svg
   width="203.86475mm"
   height="50.988026mm"
   viewBox="0 0 203.86475 50.988026"
   version="1.1"
   id="svg8"
   xmlns:xlink="http://www.w3.org/1999/xlink"
   xmlns="http://www.w3.org/2000/svg"
   xmlns:svg="http://www.w3.org/2000/svg"
   xmlns:rdf="http://www.w3.org/1999/02/22-rdf-syntax-ns#"
   xmlns:cc="http://creativecommons.org/ns#"
   xmlns:dc="http://purl.org/dc/elements/1.1/">
  <defs
     id="defs2">
    <rect
       x="150.44087"
       y="7.6867599"
       width="126.55701"
       height="67.259148"
       id="rect968" />
    <rect
       x="20.864063"
       y="76.593071"
       width="89.49585"
       height="27.727242"
       id="rect922" />
    <linearGradient
       id="linearGradient904">
      <stop
         style="stop-color:#000000;stop-opacity:1;"
         offset="0"
         id="stop900" />
      <stop
         style="stop-color:#000000;stop-opacity:0;"
         offset="1"
         id="stop902" />
    </linearGradient>
    <linearGradient
       xlink:href="#linearGradient904"
       id="linearGradient906"
       x1="267.83582"
       y1="48.542152"
       x2="279.35251"
       y2="48.542152"
       gradientUnits="userSpaceOnUse" />
  </defs>
  <metadata
     id="metadata5">
    <rdf:RDF>
      <cc:Work
         rdf:about="">
        <dc:format>image/svg+xml</dc:format>
        <dc:type
           rdf:resource="http://purl.org/dc/dcmitype/StillImage" />
      </cc:Work>
    </rdf:RDF>
  </metadata>
  <g
     id="layer1"
     transform="translate(-53.933578,-33.968106)">
    <g
       aria-label="will-s::ft"
       id="text839"
       style="font-size:58.9375px;line-height:1.25;font-family:'Hemi Head';-inkscape-font-specification:'Hemi Head';stroke-width:3.15736">
      <path
         d="M 75.265682,69.231356 73.755664,52.134047 64.40329,69.231356 h -8.475589 l -1.70486,-24.647403 h 7.501383 l 0.633234,17.633121 9.254954,-17.633121 h 8.037195 l 1.315178,17.584412 8.57301,-17.584412 h 7.209121 L 83.887402,69.231356 Z"
         style="fill:#ffffff;fill-opacity:1;stroke:#ffffff;stroke-width:0.578531;stroke-linecap:round;stroke-linejoin:round;stroke-miterlimit:4;stroke-dasharray:none;stroke-opacity:1"
         id="path841" />
      <path
         d="m 94.944594,69.231358 5.211996,-24.647406 h 6.81944 l -5.212,24.647406 z m 5.845236,-27.570016 1.55872,-7.40397 h 6.86815 l -1.55872,7.40397 z"
         style="fill:#ffffff;fill-opacity:1;stroke:#ffffff;stroke-width:0.578531;stroke-linecap:round;stroke-linejoin:round;stroke-miterlimit:4;stroke-dasharray:none;stroke-opacity:1"
         id="path843" />
      <path
         d="m 107.17079,69.231356 7.40397,-34.973982 h 6.81944 l -7.40396,34.973982 z"
         style="fill:#ffffff;fill-opacity:1;stroke:#ffffff;stroke-width:0.578531;stroke-linecap:round;stroke-linejoin:round;stroke-miterlimit:4;stroke-dasharray:none;stroke-opacity:1"
         id="path845" />
      <path
         d="m 119.2509,69.231355 7.40396,-34.97398 h 6.81944 l -7.40396,34.97398 z"
         style="fill:#ffffff;fill-opacity:1;stroke:#ffffff;stroke-width:0.578531;stroke-linecap:round;stroke-linejoin:round;stroke-miterlimit:4;stroke-dasharray:none;stroke-opacity:1"
         id="path847" />
      <path
         d="m 133.29393,60.160719 0.87678,-4.091663 h 15.68471 l -0.87679,4.091663 z"
         style="fill:#ffffff;fill-opacity:1;stroke:#ffffff;stroke-width:0.578531;stroke-miterlimit:4;stroke-dasharray:none;stroke-opacity:1"
         id="path849" />
      <path
         d="m 159.25328,71.205975 1.16904,-5.650392 h 16.90247 q 0.77936,0 1.02292,-0.243554 0.29225,-0.243545 0.43838,-0.925493 l 0.53582,-2.43551 q 0.0487,-0.146137 0.0487,-0.389682 0,-0.633236 -0.97421,-0.633236 h -13.2005 q -1.65614,0 -2.43551,-0.633237 -0.73066,-0.68194 -0.73066,-1.802283 0,-0.487098 0.14614,-1.071622 l 1.36389,-6.57589 q 0.43838,-2.191962 1.65614,-3.214878 1.21776,-1.071626 3.79941,-1.071626 h 20.36089 l -1.16905,5.504262 H 171.3821 q -0.77936,0 -1.12033,0.292262 -0.34097,0.292261 -0.4871,1.022915 l -0.43839,2.045832 q -0.0487,0.146129 -0.0487,0.438394 0,0.779365 1.02292,0.779365 h 13.34661 q 1.70486,0 2.43552,0.68194 0.77936,0.681948 0.77936,1.802282 0,0.243554 -0.0487,0.487107 0,0.243545 -0.0487,0.487099 l -1.4613,6.819441 q -0.48711,2.191964 -1.70486,3.263586 -1.21776,1.022918 -3.79941,1.022918 z"
         style="fill:#ffffff;fill-opacity:1;stroke:#ffffff;stroke-width:0.578531;stroke-linecap:round;stroke-linejoin:round;stroke-miterlimit:4;stroke-dasharray:none;stroke-opacity:1"
         id="path851" />
      <path
         d="m 189.89046,69.879084 1.55872,-7.35525 h 6.23492 l -1.55873,7.35525 z m 2.99208,-14.133674 1.55873,-7.355252 h 6.23492 l -1.55873,7.355252 z"
         style="fill:#ffffff;fill-opacity:1;stroke:#ffffff;stroke-width:0.578531;stroke-linejoin:round;stroke-miterlimit:4;stroke-dasharray:none;stroke-opacity:1"
         id="path853" />
      <path
         d="m 201.88282,69.879092 1.55873,-7.35525 h 6.23491 l -1.55872,7.35525 z m 2.95953,-14.13368 1.55873,-7.355252 h 6.23491 l -1.55873,7.355252 z"
         style="fill:#ffffff;fill-opacity:1;stroke:#ffffff;stroke-width:0.578531;stroke-linejoin:round;stroke-miterlimit:4;stroke-dasharray:none;stroke-opacity:1"
         id="path855" />
      <path
         d="m 214.10086,71.205975 6.1862,-29.32359 q 0.68195,-3.117458 2.04584,-4.383925 1.4126,-1.266468 3.79939,-1.266468 h 8.4756 l -1.12034,5.309421 h -5.11458 q -1.21776,0 -1.46131,1.266468 l -0.77937,3.750691 h 6.08879 l -1.12033,5.358131 h -6.08879 l -4.09166,19.289272 z"
         style="fill:#ffffff;fill-opacity:1;stroke:#ffffff;stroke-width:0.578531;stroke-linejoin:round;stroke-miterlimit:4;stroke-dasharray:none;stroke-opacity:1"
         id="path857" />
      <path
         d="m 235.53331,71.205975 q -2.04584,0 -2.97133,-0.681948 -0.87679,-0.730652 -0.87679,-2.240669 0,-0.681948 0.24355,-1.899699 l 5.65039,-26.693236 h 6.81944 l -1.4613,6.868149 h 5.94265 l -1.12034,5.358131 h -5.94265 l -2.67907,12.615962 q -0.0974,0.487107 -0.0974,0.633235 0,0.68194 1.07162,0.68194 h 4.48134 l -1.12033,5.358135 z"
         style="fill:#ffffff;fill-opacity:1;stroke:#ffffff;stroke-width:0.578531;stroke-linejoin:round;stroke-miterlimit:4;stroke-dasharray:none;stroke-opacity:1"
         id="path859" />
      <path
         d="m 140.69748,63.850725 0.87678,-4.091664 h 15.68472 l -0.87679,4.091664 z"
         style="font-size:58.9375px;line-height:1.25;font-family:'Hemi Head';-inkscape-font-specification:'Hemi Head';fill:#ffffff;fill-opacity:1;stroke:#ffffff;stroke-width:0.578531;stroke-miterlimit:4;stroke-dasharray:none;stroke-opacity:1"
         id="path849-0" />
      <g
         aria-label=";"
         id="text896"
         style="font-size:31.8336px;stroke-width:5.38447;fill:#dbdbdb;fill-opacity:1">
        <path
           d="m 254.51859,51.927605 h 3.27973 v 3.948112 h -3.27973 z m 0,12.512718 h 3.27973 v 2.673525 l -2.54918,4.974 H 253.244 l 1.27459,-4.974 z"
           id="path567"
           style="fill:#ffffff;fill-opacity:1" />
      </g>
      <text
         xml:space="preserve"
         id="text920"
         style="font-size:4.93889px;line-height:1.25;font-family:'Hemi Head';-inkscape-font-specification:'Hemi Head';white-space:pre;shape-inside:url(#rect922);display:inline" />
      <text
         xml:space="preserve"
         id="text966"
         style="font-size:4.93889px;line-height:1.25;font-family:'Hemi Head';-inkscape-font-specification:'Hemi Head';white-space:pre;shape-inside:url(#rect968);display:inline" />
      <path
         d="m 201.88282,69.879092 1.55873,-7.35525 h 6.23491 l -1.55872,7.35525 z"
         style="fill:#ffffff;fill-opacity:1;stroke:#ffffff;stroke-width:0.578531;stroke-linejoin:round;stroke-miterlimit:4;stroke-dasharray:none;stroke-opacity:1"
         id="path886" />
      <g
         aria-label="Tech. Corp."
         id="text980"
         style="font-size:10.5018px;stroke-width:1.77631;fill:#ffffff;fill-opacity:1">
        <path
           d="m 189.35652,75.115822 h 6.47645 v 0.871732 h -2.71775 v 6.784121 h -1.04095 v -6.784121 h -2.71775 z"
           id="path546"
           style="fill:#ffffff;fill-opacity:1" />
        <path
           d="m 199.91985,79.664209 v 0.461505 h -4.33815 q 0.0615,0.974288 0.58458,1.487071 0.52816,0.507655 1.46656,0.507655 0.54355,0 1.0512,-0.133323 0.51279,-0.133324 1.01531,-0.399971 v 0.892243 q -0.50765,0.215369 -1.04095,0.328181 -0.53329,0.112812 -1.08197,0.112812 -1.37426,0 -2.17933,-0.799942 -0.79994,-0.799941 -0.79994,-2.163945 0,-1.410153 0.75892,-2.235734 0.76405,-0.830709 2.05626,-0.830709 1.15889,0 1.83064,0.748663 0.67687,0.743536 0.67687,2.025494 z m -0.94352,-0.276903 q -0.0103,-0.774303 -0.43587,-1.235807 -0.42048,-0.461505 -1.11786,-0.461505 -0.78969,0 -1.26658,0.446121 -0.47176,0.446122 -0.54355,1.256319 z"
           id="path548"
           style="fill:#ffffff;fill-opacity:1" />
        <path
           d="m 205.60149,77.249 v 0.881987 q -0.39997,-0.220496 -0.80507,-0.328181 -0.39997,-0.112812 -0.8102,-0.112812 -0.91788,0 -1.42554,0.584573 -0.50765,0.579445 -0.50765,1.63065 0,1.051206 0.50765,1.635778 0.50766,0.579445 1.42554,0.579445 0.41023,0 0.8102,-0.107684 0.4051,-0.112812 0.80507,-0.333309 v 0.871731 q -0.39485,0.184602 -0.82046,0.276903 -0.42048,0.0923 -0.89737,0.0923 -1.29734,0 -2.06138,-0.815325 -0.76405,-0.815325 -0.76405,-2.19984 0,-1.405026 0.76917,-2.210095 0.77431,-0.80507 2.1178,-0.80507 0.43586,0 0.85122,0.0923 0.41535,0.08717 0.80507,0.266647 z"
           id="path550"
           style="fill:#ffffff;fill-opacity:1" />
        <path
           d="m 212.0164,79.305261 v 3.466414 h -0.94352 v -3.435647 q 0,-0.815325 -0.31792,-1.220424 -0.31793,-0.405099 -0.95378,-0.405099 -0.76405,0 -1.20504,0.487144 -0.44099,0.487144 -0.44099,1.328109 v 3.245917 h -0.94865 v -7.978906 h 0.94865 v 3.127977 q 0.33843,-0.517911 0.79481,-0.774302 0.46151,-0.256392 1.06146,-0.256392 0.98967,0 1.49733,0.61534 0.50765,0.610212 0.50765,1.799869 z"
           id="path552"
           style="fill:#ffffff;fill-opacity:1" />
        <path
           d="m 214.03164,81.469206 h 1.08198 v 1.302469 h -1.08198 z"
           id="path554"
           style="fill:#ffffff;fill-opacity:1" />
        <path
           d="m 226.3487,75.705523 v 1.092228 q -0.52304,-0.487144 -1.11787,-0.728152 -0.5897,-0.241008 -1.25632,-0.241008 -1.31273,0 -2.01011,0.805069 -0.69739,0.799942 -0.69739,2.31778 0,1.512711 0.69739,2.31778 0.69738,0.799942 2.01011,0.799942 0.66662,0 1.25632,-0.241008 0.59483,-0.241008 1.11787,-0.728152 v 1.081972 q -0.54356,0.369204 -1.15377,0.553806 -0.60508,0.184602 -1.28196,0.184602 -1.73833,0 -2.73826,-1.061461 -0.99992,-1.066589 -0.99992,-2.907481 0,-1.846019 0.99992,-2.90748 0.99993,-1.066589 2.73826,-1.066589 0.68713,0 1.29222,0.184602 0.61021,0.179474 1.14351,0.54355 z"
           id="path556"
           style="fill:#ffffff;fill-opacity:1" />
        <path
           d="m 230.13304,77.689994 q -0.75892,0 -1.19992,0.594828 -0.44099,0.589701 -0.44099,1.620395 0,1.030694 0.43586,1.625523 0.441,0.5897 1.20505,0.5897 0.75379,0 1.19478,-0.594828 0.44099,-0.594829 0.44099,-1.620395 0,-1.020438 -0.44099,-1.615267 -0.44099,-0.599956 -1.19478,-0.599956 z m 0,-0.799942 q 1.23068,0 1.93319,0.799942 0.70251,0.799942 0.70251,2.215223 0,1.410154 -0.70251,2.215223 -0.70251,0.799942 -1.93319,0.799942 -1.23581,0 -1.93833,-0.799942 -0.69738,-0.805069 -0.69738,-2.215223 0,-1.415281 0.69738,-2.215223 0.70252,-0.799942 1.93833,-0.799942 z"
           id="path558"
           style="fill:#ffffff;fill-opacity:1" />
        <path
           d="m 237.66069,77.910491 q -0.15896,-0.0923 -0.34869,-0.133324 -0.1846,-0.04615 -0.41023,-0.04615 -0.79994,0 -1.23068,0.523039 -0.42561,0.517911 -0.42561,1.492199 v 3.025421 h -0.94865 v -5.743172 h 0.94865 v 0.892243 q 0.29742,-0.523039 0.7743,-0.774302 0.47689,-0.256392 1.15889,-0.256392 0.0974,0 0.21537,0.01538 0.11794,0.01026 0.26152,0.03589 z"
           id="path560"
           style="fill:#ffffff;fill-opacity:1" />
        <path
           d="m 239.56312,81.910199 v 3.045932 h -0.94865 v -7.927628 h 0.94865 v 0.871732 q 0.29741,-0.512783 0.74866,-0.758919 0.45638,-0.251264 1.0871,-0.251264 1.04608,0 1.69731,0.830709 0.65636,0.830709 0.65636,2.184456 0,1.353748 -0.65636,2.184456 -0.65123,0.830709 -1.69731,0.830709 -0.63072,0 -1.0871,-0.246136 -0.45125,-0.251263 -0.74866,-0.764047 z m 3.21002,-2.004982 q 0,-1.04095 -0.43074,-1.63065 -0.42561,-0.594829 -1.17427,-0.594829 -0.74867,0 -1.1794,0.594829 -0.42561,0.5897 -0.42561,1.63065 0,1.04095 0.42561,1.635778 0.43073,0.589701 1.1794,0.589701 0.74866,0 1.17427,-0.589701 0.43074,-0.594828 0.43074,-1.635778 z"
           id="path562"
           style="fill:#ffffff;fill-opacity:1" />
        <path
           d="m 245.44987,81.469206 h 1.08197 v 1.302469 h -1.08197 z"
           id="path564"
           style="fill:#ffffff;fill-opacity:1" />
      </g>
      <path
         d="m 201.88282,69.879092 1.55873,-7.35525 h 6.23491 l -1.55872,7.35525 z"
         style="fill:#ffffff;fill-opacity:1;stroke:#ffffff;stroke-width:0.578531;stroke-linejoin:round;stroke-miterlimit:4;stroke-dasharray:none;stroke-opacity:1"
         id="path888" />
    </g>
  </g>
</svg>
